<svg width="39" height="36" viewBox="0 0 39 36" fill="none" xmlns="http://www.w3.org/2000/svg">
<path d="M28.8152 33.5077C27.9973 33.8061 27.1525 34.0316 26.2916 34.1812C20.9383 35.1016 14.9775 35.9524 9.58684 34.5314C0.265902 32.0732 -0.72017 20.4134 1.13046 12.7673C2.49975 7.09899 7.74554 2.50373 13.6853 1.48905C18.9101 0.591097 24.7307 0.27457 29.9275 1.71354C34.1849 2.88536 38.4354 6.85684 38.4354 14.8473C38.4354 22.8378 39.0591 29.8059 28.8152 33.5077Z" fill="#FFD6B2"/>
<path d="M26.3335 24.2438V27.4082H12.3258V24.7079L18.9499 17.6056C19.6156 16.8649 20.1407 16.2133 20.5251 15.6508C20.9095 15.0788 21.1861 14.5678 21.3549 14.1178C21.533 13.6584 21.6221 13.2224 21.6221 12.8099C21.6221 12.191 21.5189 11.6613 21.3127 11.2206C21.1064 10.7706 20.8017 10.4237 20.3985 10.1799C20.0047 9.93612 19.5172 9.81424 18.9359 9.81424C18.3171 9.81424 17.7826 9.96425 17.3326 10.2643C16.8919 10.5643 16.5544 10.9815 16.32 11.516C16.095 12.0504 15.9824 12.6551 15.9824 13.3302H11.918C11.918 12.1113 12.2086 10.9956 12.7899 9.983C13.3712 8.96103 14.1916 8.15001 15.2511 7.54995C16.3106 6.94051 17.567 6.63579 19.0203 6.63579C20.4548 6.63579 21.6643 6.87019 22.6487 7.33899C23.6426 7.79841 24.3927 8.4641 24.899 9.33606C25.4146 10.1987 25.6725 11.23 25.6725 12.4301C25.6725 13.1052 25.5647 13.7662 25.349 14.4131C25.1334 15.0507 24.824 15.6883 24.4208 16.3258C24.027 16.954 23.5488 17.5916 22.9863 18.2385C22.4237 18.8855 21.8002 19.5558 21.1158 20.2497L17.5576 24.2438H26.3335Z" fill="#7A342A"/>
</svg>
