<svg width="39" height="36" viewBox="0 0 39 36" fill="none" xmlns="http://www.w3.org/2000/svg">
<path d="M28.4563 33.4667C27.6384 33.7651 26.7937 33.9906 25.9327 34.1402C20.5794 35.0606 14.6186 35.9114 9.22795 34.4904C-0.0929851 32.0322 -1.07906 20.3723 0.771578 12.7263C2.14086 7.05798 7.38666 2.46272 13.3264 1.44803C18.5512 0.550082 24.3718 0.233554 29.5686 1.67252C33.826 2.84435 38.0765 6.81583 38.0765 14.8063C38.0765 22.7968 38.7002 29.7649 28.4563 33.4667Z" fill="#D3E4EE"/>
<path d="M16.1158 15.3707H18.2816C18.9755 15.3707 19.5474 15.2535 19.9974 15.0191C20.4475 14.7753 20.7803 14.4378 20.996 14.0065C21.221 13.5658 21.3335 13.0548 21.3335 12.4735C21.3335 11.9484 21.2304 11.4843 21.0241 11.0812C20.8272 10.6686 20.5225 10.3498 20.1099 10.1248C19.6974 9.89042 19.177 9.77322 18.5489 9.77322C18.0519 9.77322 17.5925 9.87167 17.1706 10.0686C16.7487 10.2655 16.4111 10.542 16.158 10.8983C15.9048 11.2546 15.7783 11.6859 15.7783 12.1922H11.7138C11.7138 11.0671 12.0138 10.0873 12.6139 9.25286C13.2233 8.4184 14.039 7.76677 15.061 7.29797C16.083 6.82917 17.2081 6.59478 18.4363 6.59478C19.824 6.59478 21.0382 6.8198 22.0789 7.26984C23.1196 7.71051 23.9306 8.36214 24.512 9.22473C25.0933 10.0873 25.3839 11.1562 25.3839 12.4313C25.3839 13.0782 25.2339 13.7064 24.9339 14.3159C24.6338 14.9159 24.2026 15.4597 23.64 15.9473C23.0868 16.4255 22.4117 16.8099 21.6148 17.1005C20.8178 17.3818 19.9224 17.5224 18.9286 17.5224H16.1158V15.3707ZM16.1158 18.4507V16.3551H18.9286C20.0443 16.3551 21.0241 16.4817 21.8679 16.7349C22.7118 16.988 23.4197 17.3537 23.9916 17.8318C24.5635 18.3006 24.9948 18.8585 25.2855 19.5055C25.5761 20.143 25.7215 20.8509 25.7215 21.6291C25.7215 22.5855 25.5386 23.4387 25.173 24.1887C24.8073 24.9294 24.2916 25.5576 23.6259 26.0733C22.9696 26.589 22.2008 26.9828 21.3194 27.2547C20.4381 27.5172 19.4771 27.6485 18.4363 27.6485C17.5738 27.6485 16.7252 27.5313 15.8908 27.2969C15.0657 27.0531 14.3156 26.6921 13.6405 26.2139C12.9749 25.7264 12.4404 25.117 12.0373 24.3856C11.6435 23.6449 11.4466 22.7683 11.4466 21.7557H15.511C15.511 22.2807 15.6423 22.7495 15.9048 23.1621C16.1674 23.5746 16.5283 23.8981 16.9878 24.1325C17.4566 24.3669 17.9769 24.4841 18.5489 24.4841C19.1958 24.4841 19.749 24.3669 20.2084 24.1325C20.6772 23.8887 21.0335 23.5512 21.2773 23.1199C21.5304 22.6792 21.657 22.1682 21.657 21.5869C21.657 20.8368 21.521 20.2368 21.2491 19.7867C20.9772 19.3273 20.5881 18.9898 20.0818 18.7741C19.5755 18.5585 18.9755 18.4507 18.2816 18.4507H16.1158Z" fill="#003545"/>
</svg>
