<svg width="82" height="74" viewBox="0 0 82 74" fill="none" xmlns="http://www.w3.org/2000/svg">
<path d="M60.7709 70.028C59.0318 70.6626 57.2355 71.1419 55.4048 71.46C44.0216 73.4172 31.3466 75.2263 19.8839 72.2047C0.0639962 66.9777 -2.03278 42.1843 1.90239 25.9258C4.81402 13.8728 15.9686 4.10147 28.5989 1.94385C39.7088 0.0344611 52.0857 -0.6386 63.136 2.4212C72.1889 4.91296 81.2272 13.3579 81.2272 30.3487C81.2272 47.3396 82.5535 62.1565 60.7709 70.028Z" fill="#D3E4EE"/>
<path d="M34.5304 32.1353H39.1358C40.6112 32.1353 41.8273 31.886 42.7843 31.3876C43.7412 30.8693 44.449 30.1515 44.9076 29.2344C45.386 28.2974 45.6253 27.2108 45.6253 25.9747C45.6253 24.8583 45.406 23.8714 44.9674 23.0141C44.5487 22.1369 43.9007 21.459 43.0235 20.9806C42.1463 20.4821 41.0398 20.2329 39.704 20.2329C38.6474 20.2329 37.6705 20.4423 36.7733 20.8609C35.8761 21.2796 35.1584 21.8677 34.6201 22.6253C34.0818 23.3829 33.8127 24.3 33.8127 25.3766H25.17C25.17 22.9842 25.808 20.9008 27.084 19.1264C28.3799 17.352 30.1144 15.9664 32.2875 14.9696C34.4606 13.9727 36.853 13.4743 39.4648 13.4743C42.4154 13.4743 44.9973 13.9528 47.2103 14.9098C49.4233 15.8468 51.1478 17.2324 52.3839 19.0666C53.62 20.9008 54.238 23.1736 54.238 25.885C54.238 27.2607 53.919 28.5965 53.2811 29.8924C52.6431 31.1683 51.726 32.3247 50.5298 33.3614C49.3535 34.3782 47.918 35.1956 46.2234 35.8136C44.5288 36.4117 42.6248 36.7108 40.5115 36.7108H34.5304V32.1353ZM34.5304 38.6845V34.2286H40.5115C42.884 34.2286 44.9674 34.4978 46.7617 35.0361C48.556 35.5744 50.0612 36.3519 51.2774 37.3687C52.4936 38.3655 53.4106 39.5518 54.0287 40.9274C54.6467 42.2831 54.9558 43.7884 54.9558 45.4431C54.9558 47.4767 54.567 49.291 53.7895 50.8859C53.0119 52.4609 51.9154 53.7967 50.4999 54.8932C49.1043 55.9898 47.4694 56.8271 45.5954 57.4053C43.7213 57.9635 41.6778 58.2426 39.4648 58.2426C37.6306 58.2426 35.8263 57.9934 34.0519 57.495C32.2975 56.9766 30.7025 56.2091 29.267 55.1923C27.8515 54.1556 26.7151 52.8597 25.8578 51.3046C25.0205 49.7296 24.6018 47.8655 24.6018 45.7123H33.2445C33.2445 46.8288 33.5236 47.8256 34.0818 48.7028C34.64 49.5801 35.4076 50.2679 36.3845 50.7663C37.3814 51.2647 38.4879 51.5139 39.704 51.5139C41.0797 51.5139 42.2559 51.2647 43.2329 50.7663C44.2297 50.2479 44.9873 49.5302 45.5057 48.6131C46.044 47.6761 46.3131 46.5895 46.3131 45.3534C46.3131 43.7585 46.024 42.4825 45.4459 41.5255C44.8677 40.5486 44.0403 39.8309 42.9637 39.3724C41.8871 38.9138 40.6112 38.6845 39.1358 38.6845H34.5304Z" fill="#003545"/>
</svg>
