<svg width="39" height="35" viewBox="0 0 39 35" fill="none" xmlns="http://www.w3.org/2000/svg">
<path d="M28.8152 33.1073C27.9973 33.4058 27.1525 33.6312 26.2916 33.7808C20.9383 34.7012 14.9775 35.552 9.58684 34.131C0.265902 31.6729 -0.72017 20.013 1.13046 12.3669C2.49975 6.6986 7.74554 2.10334 13.6853 1.08866C18.9101 0.190707 24.7307 -0.125821 29.9275 1.31314C34.1849 2.48497 38.4354 6.45645 38.4354 14.4469C38.4354 22.4374 39.0591 29.4055 28.8152 33.1073Z" fill="#FFD6B2"/>
<path d="M26.671 19.357V22.5355H11.918L11.7211 20.0743L20.2579 6.53074H23.4785L19.9907 12.3673L15.7434 19.357H26.671ZM24.3505 6.53074V27.0078H20.3001V6.53074H24.3505Z" fill="#7A342A"/>
</svg>
