<svg width="81" height="74" viewBox="0 0 81 74" fill="none" xmlns="http://www.w3.org/2000/svg">
<path d="M60.5307 69.9694C58.7915 70.604 56.9952 71.0833 55.1646 71.4015C43.7814 73.3586 31.1064 75.1677 19.6437 72.1461C-0.176238 66.9192 -2.27301 42.1257 1.66216 25.8672C4.57379 13.8142 15.7284 4.04287 28.3587 1.88526C39.4686 -0.0241326 51.8455 -0.697193 62.8958 2.36261C71.9487 4.85436 80.9869 13.2993 80.9869 30.2902C80.9869 47.281 82.3133 62.0979 60.5307 69.9694Z" fill="#FFD6B2"/>
<path d="M55.2528 50.8572V57.5859H25.4671V51.8441L39.5525 36.7419C40.968 35.1669 42.0845 33.7813 42.9019 32.5851C43.7193 31.3689 44.3075 30.2823 44.6663 29.3254C45.0451 28.3485 45.2345 27.4214 45.2345 26.5442C45.2345 25.2283 45.0152 24.1019 44.5766 23.1649C44.138 22.2079 43.4901 21.4702 42.6328 20.9519C41.7954 20.4335 40.7587 20.1743 39.5226 20.1743C38.2068 20.1743 37.0704 20.4933 36.1134 21.1313C35.1764 21.7693 34.4586 22.6565 33.9602 23.7929C33.4817 24.9293 33.2425 26.2152 33.2425 27.6507H24.5998C24.5998 25.0589 25.2179 22.6864 26.454 20.5332C27.6901 18.3601 29.4345 16.6355 31.6874 15.3596C33.9403 14.0637 36.6118 13.4157 39.7021 13.4157C42.7524 13.4157 45.3243 13.9141 47.4176 14.911C49.531 15.8879 51.1259 17.3034 52.2025 19.1575C53.299 20.9917 53.8473 23.1848 53.8473 25.7367C53.8473 27.1722 53.618 28.5777 53.1595 29.9534C52.7009 31.3091 52.043 32.6648 51.1857 34.0205C50.3484 35.3563 49.3316 36.712 48.1354 38.0876C46.9392 39.4633 45.6133 40.8888 44.158 42.3641L36.5919 50.8572H55.2528Z" fill="#7A342A"/>
</svg>
