<svg width="81" height="75" viewBox="0 0 81 75" fill="none" xmlns="http://www.w3.org/2000/svg">
<path d="M60.5307 70.6198C58.7915 71.2543 56.9952 71.7337 55.1646 72.0518C43.7814 74.009 31.1064 75.8181 19.6437 72.7965C-0.176238 67.5695 -2.27301 42.7761 1.66216 26.5176C4.57379 14.4646 15.7284 4.69326 28.3587 2.53565C39.4686 0.626258 51.8455 -0.0468028 62.8958 3.013C71.9487 5.50475 80.9869 13.9497 80.9869 30.9405C80.9869 47.9314 82.3133 62.7483 60.5307 70.6198Z" fill="#FFD6B2"/>
<path d="M55.9706 41.9678V48.7264H24.5998L24.1812 43.493L42.3337 14.6941H49.1821L41.7655 27.1048L32.7341 41.9678H55.9706ZM51.0362 14.6941V58.2363H42.4234V14.6941H51.0362Z" fill="#7A342A"/>
</svg>
